<?xml version="1.0" encoding="UTF-8" standalone="no"?>
<!-- Created with Inkscape (http://www.inkscape.org/) -->

<svg
   xmlns:dc="http://purl.org/dc/elements/1.1/"
   xmlns:cc="http://creativecommons.org/ns#"
   xmlns:rdf="http://www.w3.org/1999/02/22-rdf-syntax-ns#"
   xmlns:svg="http://www.w3.org/2000/svg"
   xmlns="http://www.w3.org/2000/svg"
   xmlns:sodipodi="http://sodipodi.sourceforge.net/DTD/sodipodi-0.dtd"
   xmlns:inkscape="http://www.inkscape.org/namespaces/inkscape"
   width="25"
   height="160"
   id="svg2"
   version="1.1"
   inkscape:version="0.48.0 r9654"
   sodipodi:docname="pfd_vsi_scale.svg">
  <defs
     id="defs4" />
  <sodipodi:namedview
     id="base"
     pagecolor="#ffffff"
     bordercolor="#666666"
     borderopacity="1.0"
     inkscape:pageopacity="0.0"
     inkscape:pageshadow="2"
     inkscape:zoom="3.1146239"
     inkscape:cx="-47.172575"
     inkscape:cy="85.24509"
     inkscape:document-units="px"
     inkscape:current-layer="layer1"
     showgrid="false"
     inkscape:window-width="1440"
     inkscape:window-height="838"
     inkscape:window-x="-8"
     inkscape:window-y="-8"
     inkscape:window-maximized="1"
     inkscape:snap-object-midpoints="false"
     inkscape:snap-smooth-nodes="false"
     inkscape:object-paths="false"
     inkscape:snap-midpoints="true"
     inkscape:snap-intersection-paths="true"
     inkscape:object-nodes="true"
     inkscape:snap-center="false"
     inkscape:snap-global="false" />
  <metadata
     id="metadata7">
    <rdf:RDF>
      <cc:Work
         rdf:about="">
        <dc:format>image/svg+xml</dc:format>
        <dc:type
           rdf:resource="http://purl.org/dc/dcmitype/StillImage" />
        <dc:title />
      </cc:Work>
    </rdf:RDF>
  </metadata>
  <g
     inkscape:label="Layer 1"
     inkscape:groupmode="layer"
     id="layer1"
     transform="translate(0,-892.36218)">
    <rect
       style="opacity:0.35;fill:#ffffff;fill-rule:evenodd;stroke:#000000;stroke-width:0;stroke-linecap:butt;stroke-linejoin:miter;stroke-miterlimit:4;stroke-opacity:1;stroke-dasharray:none"
       id="rect5550"
       width="19.180336"
       height="160.29007"
       x="4.0585737"
       y="892.42578"
       ry="9.0178938" />
    <g
       id="g4127"
       transform="translate(-275,94.999997)"
       style="fill:#ffffff">
      <g
         id="g3973"
         style="fill:#ffffff">
        <rect
           style="fill:#ffffff;fill-opacity:1;stroke:none"
           id="rect3315-7"
           width="8"
           height="1"
           x="280"
           y="858.86218" />
        <rect
           style="fill:#ffffff;fill-opacity:1;stroke:none"
           id="rect3315-7-7"
           width="8"
           height="1"
           x="280"
           y="840.86218" />
        <rect
           style="fill:#ffffff;fill-opacity:1;stroke:none"
           id="rect3315-7-7-8"
           width="8"
           height="1"
           x="280"
           y="822.86218" />
        <rect
           style="fill:#ffffff;fill-opacity:1;stroke:none"
           id="rect3315-7-7-8-3"
           width="8"
           height="1"
           x="280"
           y="812.86218" />
        <rect
           style="fill:#ffffff;fill-opacity:1;stroke:none"
           id="rect3315-7-7-8-4"
           width="8"
           height="1"
           x="280"
           y="802.86218" />
        <rect
           style="fill:#ffffff;fill-opacity:1;stroke:none"
           id="rect3315"
           width="8"
           height="1"
           x="280"
           y="876.86218" />
        <rect
           style="fill:#ffffff;fill-opacity:1;stroke:none"
           id="rect3315-2"
           width="4"
           height="1"
           x="282"
           y="873.26221" />
        <rect
           style="fill:#ffffff;fill-opacity:1;stroke:none"
           id="rect3315-2-9"
           width="4"
           height="1"
           x="282"
           y="869.66217" />
        <rect
           style="fill:#ffffff;fill-opacity:1;stroke:none"
           id="rect3315-2-96"
           width="4"
           height="1"
           x="282"
           y="866.06219" />
        <rect
           style="fill:#ffffff;fill-opacity:1;stroke:none"
           id="rect3315-2-96-2"
           width="4"
           height="1"
           x="282"
           y="862.46216" />
        <rect
           style="fill:#ffffff;fill-opacity:1;stroke:none"
           id="rect3315-2-4"
           width="4"
           height="1"
           x="282"
           y="855.26221" />
        <rect
           style="fill:#ffffff;fill-opacity:1;stroke:none"
           id="rect3315-2-9-9"
           width="4"
           height="1"
           x="282"
           y="851.66217" />
        <rect
           style="fill:#ffffff;fill-opacity:1;stroke:none"
           id="rect3315-2-96-4"
           width="4"
           height="1"
           x="282"
           y="848.06219" />
        <rect
           style="fill:#ffffff;fill-opacity:1;stroke:none"
           id="rect3315-2-96-2-8"
           width="4"
           height="1"
           x="282"
           y="844.46216" />
        <rect
           style="fill:#ffffff;fill-opacity:1;stroke:none"
           id="rect3315-2-9-9-3"
           width="4"
           height="1"
           x="282"
           y="831.86218" />
        <rect
           style="fill:#ffffff;fill-opacity:1;stroke:none"
           id="rect3315-7-4"
           width="8"
           height="1"
           x="280"
           y="-895.86224"
           transform="scale(1,-1)" />
        <rect
           style="fill:#ffffff;fill-opacity:1;stroke:none"
           id="rect3315-7-7-5"
           width="8"
           height="1"
           x="280"
           y="-913.86224"
           transform="scale(1,-1)" />
        <rect
           style="fill:#ffffff;fill-opacity:1;stroke:none"
           id="rect3315-7-7-8-8"
           width="8"
           height="1"
           x="280"
           y="-931.86224"
           transform="scale(1,-1)" />
        <rect
           style="fill:#ffffff;fill-opacity:1;stroke:none"
           id="rect3315-7-7-8-3-9"
           width="8"
           height="1"
           x="280"
           y="-941.86224"
           transform="scale(1,-1)" />
        <rect
           style="fill:#ffffff;fill-opacity:1;stroke:none"
           id="rect3315-7-7-8-4-7"
           width="8"
           height="1"
           x="280"
           y="-951.86224"
           transform="scale(1,-1)" />
        <rect
           style="fill:#ffffff;fill-opacity:1;stroke:none"
           id="rect3315-2-1"
           width="4"
           height="1"
           x="282"
           y="-881.46222"
           transform="scale(1,-1)" />
        <rect
           style="fill:#ffffff;fill-opacity:1;stroke:none"
           id="rect3315-2-9-5"
           width="4"
           height="1"
           x="282"
           y="-885.06226"
           transform="scale(1,-1)" />
        <rect
           style="fill:#ffffff;fill-opacity:1;stroke:none"
           id="rect3315-2-96-9"
           width="4"
           height="1"
           x="282"
           y="-888.66223"
           transform="scale(1,-1)" />
        <rect
           style="fill:#ffffff;fill-opacity:1;stroke:none"
           id="rect3315-2-96-2-1"
           width="4"
           height="1"
           x="282"
           y="-892.26227"
           transform="scale(1,-1)" />
        <rect
           style="fill:#ffffff;fill-opacity:1;stroke:none"
           id="rect3315-2-4-6"
           width="4"
           height="1"
           x="282"
           y="-899.46222"
           transform="scale(1,-1)" />
        <rect
           style="fill:#ffffff;fill-opacity:1;stroke:none"
           id="rect3315-2-9-9-7"
           width="4"
           height="1"
           x="282"
           y="-903.06226"
           transform="scale(1,-1)" />
        <rect
           style="fill:#ffffff;fill-opacity:1;stroke:none"
           id="rect3315-2-96-4-7"
           width="4"
           height="1"
           x="282"
           y="-906.66223"
           transform="scale(1,-1)" />
        <rect
           style="fill:#ffffff;fill-opacity:1;stroke:none"
           id="rect3315-2-96-2-8-8"
           width="4"
           height="1"
           x="282"
           y="-910.26227"
           transform="scale(1,-1)" />
        <rect
           style="fill:#ffffff;fill-opacity:1;stroke:none"
           id="rect3315-2-9-9-3-3"
           width="4"
           height="1"
           x="282"
           y="-922.86224"
           transform="scale(1,-1)" />
      </g>
      <g
         transform="translate(0,3.1347656e-6)"
         id="g3908"
         style="fill:#ffffff">
        <g
           style="font-size:40px;font-style:normal;font-variant:normal;font-weight:bold;font-stretch:condensed;line-height:125%;letter-spacing:0px;word-spacing:0px;fill:#ffffff;fill-opacity:1;stroke:none;font-family:Liberation Sans Narrow;-inkscape-font-specification:Liberation Sans Narrow Bold Condensed"
           id="text3452">
          <path
             inkscape:connector-curvature="0"
             d="m 295.68164,877.52423 c 0,0.78907 -0.0606,1.45508 -0.18164,1.99805 -0.11719,0.53906 -0.28125,0.97656 -0.49219,1.3125 -0.20703,0.33203 -0.45508,0.57226 -0.74414,0.7207 -0.28516,0.14453 -0.59766,0.2168 -0.9375,0.2168 -0.33984,0 -0.65234,-0.0723 -0.9375,-0.2168 -0.28516,-0.14453 -0.53125,-0.38281 -0.73828,-0.71484 -0.20313,-0.33594 -0.36328,-0.77344 -0.48047,-1.3125 C 291.05664,878.98517 291,878.3172 291,877.52423 c 0,-0.83203 0.0566,-1.51952 0.16992,-2.0625 0.11719,-0.54687 0.2793,-0.98241 0.48633,-1.30664 0.20703,-0.32421 0.45508,-0.55077 0.74414,-0.67969 0.29297,-0.1328 0.61523,-0.19921 0.9668,-0.19922 0.32812,1e-5 0.63281,0.0664 0.91406,0.19922 0.28515,0.12892 0.53125,0.35548 0.73828,0.67969 0.20703,0.32423 0.36914,0.75977 0.48633,1.30664 0.11718,0.54298 0.17578,1.23047 0.17578,2.0625 m -1.35352,0 c 0,-0.58203 -0.0176,-1.06249 -0.0527,-1.44141 -0.0352,-0.3828 -0.0918,-0.68554 -0.16992,-0.9082 -0.0781,-0.22655 -0.17969,-0.38476 -0.30469,-0.47461 -0.1211,-0.0898 -0.26953,-0.13476 -0.44531,-0.13476 -0.1875,0 -0.34571,0.0469 -0.47461,0.14062 -0.12891,0.0898 -0.23242,0.24806 -0.31055,0.47461 -0.0781,0.22657 -0.13476,0.53126 -0.16992,0.91406 -0.0312,0.37891 -0.0469,0.85548 -0.0469,1.42969 -10e-6,0.56641 0.0176,1.03907 0.0527,1.41797 0.0351,0.37891 0.0898,0.6836 0.16406,0.91406 0.0781,0.22657 0.17969,0.38672 0.30469,0.48047 0.125,0.0937 0.27929,0.14063 0.46289,0.14063 0.17578,0 0.32617,-0.0469 0.45117,-0.14063 0.125,-0.0937 0.22656,-0.2539 0.30469,-0.48047 0.082,-0.23046 0.14062,-0.53515 0.17578,-0.91406 0.0391,-0.3789 0.0586,-0.85156 0.0586,-1.41797"
             style="font-size:12px;text-align:center;text-anchor:middle;fill:#ffffff"
             id="path3519" />
        </g>
        <g
           style="font-size:40px;font-style:normal;font-variant:normal;font-weight:bold;font-stretch:condensed;line-height:125%;letter-spacing:0px;word-spacing:0px;fill:#ffffff;fill-opacity:1;stroke:none;font-family:Liberation Sans Narrow;-inkscape-font-specification:Liberation Sans Narrow Bold Condensed"
           id="text3452-6">
          <path
             inkscape:connector-curvature="0"
             d="m 291,845.49011 0,-1.22461 1.67578,0 0,-5.63086 -1.62305,1.23633 0,-1.29492 1.69336,-1.3418 1.27735,0 0,7.03125 1.55273,0 0,1.22461 -4.57617,0"
             style="font-size:12px;text-align:center;text-anchor:middle;fill:#ffffff"
             id="path3516" />
        </g>
        <g
           style="font-size:40px;font-style:normal;font-variant:normal;font-weight:bold;font-stretch:condensed;line-height:125%;letter-spacing:0px;word-spacing:0px;fill:#ffffff;fill-opacity:1;stroke:none;font-family:Liberation Sans Narrow;-inkscape-font-specification:Liberation Sans Narrow Bold Condensed"
           id="text3452-0">
          <path
             inkscape:connector-curvature="0"
             d="m 291,827.55164 0,-1.14258 c 0.15234,-0.41016 0.33984,-0.7793 0.5625,-1.10742 0.22266,-0.33203 0.45508,-0.63477 0.69727,-0.90821 0.24218,-0.27734 0.48242,-0.5332 0.7207,-0.76758 0.23828,-0.23827 0.45117,-0.46679 0.63867,-0.68554 0.1914,-0.22265 0.3457,-0.44531 0.46289,-0.66797 0.12109,-0.22265 0.18164,-0.45898 0.18164,-0.70899 0,-0.36718 -0.0762,-0.63866 -0.22851,-0.81445 -0.14844,-0.17577 -0.36915,-0.26366 -0.66211,-0.26367 -0.28907,10e-6 -0.50977,0.0957 -0.66211,0.28711 -0.14844,0.18751 -0.2461,0.47071 -0.29297,0.84961 l -1.35938,-0.0937 c 0.0312,-0.32421 0.0957,-0.6289 0.19336,-0.91406 0.10156,-0.28515 0.24414,-0.53515 0.42774,-0.75 0.18359,-0.21484 0.41406,-0.38281 0.6914,-0.50391 0.27735,-0.12499 0.60938,-0.18749 0.9961,-0.1875 0.36328,10e-6 0.68554,0.0527 0.96679,0.1582 0.28125,0.10157 0.51758,0.25196 0.70899,0.45117 0.19531,0.19923 0.34179,0.44337 0.43945,0.73243 0.10156,0.28516 0.15234,0.61133 0.15235,0.97851 -10e-6,0.38673 -0.0625,0.73634 -0.1875,1.04883 -0.12501,0.3125 -0.28517,0.60157 -0.48047,0.86719 -0.19532,0.26172 -0.41212,0.50781 -0.65039,0.73828 l -0.69141,0.67383 c -0.22657,0.21875 -0.4336,0.43945 -0.62109,0.66211 -0.1836,0.22265 -0.32032,0.46094 -0.41016,0.71484 l 3.14648,0 0,1.35352 -4.74023,0"
             style="font-size:12px;text-align:center;text-anchor:middle;fill:#ffffff"
             id="path3513" />
        </g>
        <g
           style="font-size:40px;font-style:normal;font-variant:normal;font-weight:bold;font-stretch:condensed;line-height:125%;letter-spacing:0px;word-spacing:0px;fill:#ffffff;fill-opacity:1;stroke:none;font-family:Liberation Sans Narrow;-inkscape-font-specification:Liberation Sans Narrow Bold Condensed"
           id="text3452-7">
          <path
             inkscape:connector-curvature="0"
             d="m 295.37109,805.80847 0,1.68164 -1.28906,0 0,-1.68164 -3.08203,0 0,-1.23633 2.85937,-5.33789 1.51172,0 0,5.34961 0.90235,0 0,1.22461 -0.90235,0 m -1.28906,-3.92578 c 0,-0.0664 0,-0.15234 0,-0.25781 0.004,-0.10937 0.008,-0.2207 0.0117,-0.33399 0.004,-0.11327 0.008,-0.22069 0.0117,-0.32226 0.008,-0.10546 0.0137,-0.1875 0.0176,-0.2461 -0.0156,0.043 -0.041,0.10353 -0.0762,0.18164 l -0.11718,0.25782 c -0.043,0.0937 -0.0879,0.18555 -0.13477,0.27539 l -0.12305,0.23437 -1.57031,2.91211 1.98047,0 0,-2.70117"
             style="font-size:12px;text-align:center;text-anchor:middle;fill:#ffffff"
             id="path3507" />
        </g>
        <g
           style="font-size:40px;font-style:normal;font-variant:normal;font-weight:bold;font-stretch:condensed;line-height:125%;letter-spacing:0px;word-spacing:0px;fill:#ffffff;fill-opacity:1;stroke:none;font-family:Liberation Sans Narrow;-inkscape-font-specification:Liberation Sans Narrow Bold Condensed"
           id="text3452-04">
          <path
             inkscape:connector-curvature="0"
             d="m 295.88672,815.19324 c -1e-5,0.375 -0.0508,0.71289 -0.15235,1.01367 -0.0977,0.29688 -0.24805,0.55078 -0.45117,0.76172 -0.20313,0.21094 -0.45508,0.37304 -0.75586,0.48633 -0.29687,0.10937 -0.64453,0.16406 -1.04297,0.16406 -0.4414,0 -0.81445,-0.0684 -1.11914,-0.20508 -0.30078,-0.13672 -0.54882,-0.31641 -0.74414,-0.53906 -0.1914,-0.22656 -0.33593,-0.48242 -0.43359,-0.76758 -0.0977,-0.28515 -0.16016,-0.57422 -0.1875,-0.86719 l 1.37109,-0.14648 c 0.0195,0.17578 0.0547,0.33789 0.10547,0.48633 0.0547,0.14453 0.12695,0.26953 0.2168,0.375 0.0898,0.10547 0.19922,0.1875 0.32812,0.24609 0.12891,0.0547 0.28125,0.082 0.45704,0.082 0.32421,0 0.57616,-0.0977 0.75585,-0.29297 0.17969,-0.19531 0.26953,-0.49414 0.26954,-0.89648 -1e-5,-0.24609 -0.043,-0.44336 -0.12891,-0.5918 -0.082,-0.14843 -0.18946,-0.26171 -0.32227,-0.33984 -0.12891,-0.082 -0.26953,-0.13672 -0.42187,-0.16407 -0.14844,-0.0273 -0.28907,-0.041 -0.42188,-0.041 l -0.47461,0 0,-1.33008 0.44532,0 c 0.13281,10e-6 0.26953,-0.0156 0.41015,-0.0469 0.14063,-0.0312 0.26563,-0.0879 0.375,-0.16993 0.11328,-0.082 0.20508,-0.1953 0.27539,-0.33984 0.0703,-0.14843 0.10547,-0.33593 0.10547,-0.5625 0,-0.33984 -0.0781,-0.60546 -0.23437,-0.79687 -0.15235,-0.19531 -0.37891,-0.29297 -0.67969,-0.29297 -0.27735,0 -0.50195,0.0937 -0.67383,0.28125 -0.17187,0.1875 -0.26953,0.45313 -0.29297,0.79687 l -1.35351,-0.11719 c 0.0391,-0.38671 0.12695,-0.72265 0.26367,-1.00781 0.13672,-0.28515 0.30859,-0.52148 0.51562,-0.70898 0.20703,-0.18749 0.44336,-0.32617 0.70899,-0.41602 0.26953,-0.0937 0.55468,-0.14061 0.85547,-0.14062 0.39843,10e-6 0.74023,0.0586 1.02539,0.17578 0.28515,0.11719 0.51953,0.2754 0.70312,0.47461 0.18359,0.19922 0.31836,0.43165 0.4043,0.69726 0.0859,0.26563 0.1289,0.54884 0.12891,0.84961 -10e-6,0.2422 -0.0293,0.46876 -0.0879,0.67969 -0.0586,0.20704 -0.14649,0.39454 -0.26368,0.5625 -0.11719,0.16407 -0.26758,0.30665 -0.45117,0.42773 -0.17969,0.1172 -0.39453,0.20509 -0.64453,0.26368 l 0,0.0234 c 0.27734,0.0391 0.51758,0.1172 0.7207,0.23438 0.20703,0.11328 0.37695,0.25586 0.50977,0.42773 0.13281,0.17188 0.23046,0.36719 0.29297,0.58594 0.0625,0.21485 0.0937,0.44336 0.0937,0.68555"
             style="font-size:12px;text-align:center;text-anchor:middle;fill:#ffffff"
             id="path3510" />
        </g>
        <g
           transform="translate(0,72.000064)"
           style="font-size:40px;font-style:normal;font-variant:normal;font-weight:bold;font-stretch:condensed;line-height:125%;letter-spacing:0px;word-spacing:0px;fill:#ffffff;fill-opacity:1;stroke:none;font-family:Liberation Sans Narrow;-inkscape-font-specification:Liberation Sans Narrow Bold Condensed"
           id="text3452-6-5">
          <path
             inkscape:connector-curvature="0"
             d="m 291,845.49011 0,-1.22461 1.67578,0 0,-5.63086 -1.62305,1.23633 0,-1.29492 1.69336,-1.3418 1.27735,0 0,7.03125 1.55273,0 0,1.22461 -4.57617,0"
             style="font-size:12px;text-align:center;text-anchor:middle;fill:#ffffff"
             id="path3516-6" />
        </g>
        <g
           transform="translate(0,108.00001)"
           style="font-size:40px;font-style:normal;font-variant:normal;font-weight:bold;font-stretch:condensed;line-height:125%;letter-spacing:0px;word-spacing:0px;fill:#ffffff;fill-opacity:1;stroke:none;font-family:Liberation Sans Narrow;-inkscape-font-specification:Liberation Sans Narrow Bold Condensed"
           id="text3452-0-6">
          <path
             inkscape:connector-curvature="0"
             d="m 291,827.55164 0,-1.14258 c 0.15234,-0.41016 0.33984,-0.7793 0.5625,-1.10742 0.22266,-0.33203 0.45508,-0.63477 0.69727,-0.90821 0.24218,-0.27734 0.48242,-0.5332 0.7207,-0.76758 0.23828,-0.23827 0.45117,-0.46679 0.63867,-0.68554 0.1914,-0.22265 0.3457,-0.44531 0.46289,-0.66797 0.12109,-0.22265 0.18164,-0.45898 0.18164,-0.70899 0,-0.36718 -0.0762,-0.63866 -0.22851,-0.81445 -0.14844,-0.17577 -0.36915,-0.26366 -0.66211,-0.26367 -0.28907,10e-6 -0.50977,0.0957 -0.66211,0.28711 -0.14844,0.18751 -0.2461,0.47071 -0.29297,0.84961 l -1.35938,-0.0937 c 0.0312,-0.32421 0.0957,-0.6289 0.19336,-0.91406 0.10156,-0.28515 0.24414,-0.53515 0.42774,-0.75 0.18359,-0.21484 0.41406,-0.38281 0.6914,-0.50391 0.27735,-0.12499 0.60938,-0.18749 0.9961,-0.1875 0.36328,10e-6 0.68554,0.0527 0.96679,0.1582 0.28125,0.10157 0.51758,0.25196 0.70899,0.45117 0.19531,0.19923 0.34179,0.44337 0.43945,0.73243 0.10156,0.28516 0.15234,0.61133 0.15235,0.97851 -10e-6,0.38673 -0.0625,0.73634 -0.1875,1.04883 -0.12501,0.3125 -0.28517,0.60157 -0.48047,0.86719 -0.19532,0.26172 -0.41212,0.50781 -0.65039,0.73828 l -0.69141,0.67383 c -0.22657,0.21875 -0.4336,0.43945 -0.62109,0.66211 -0.1836,0.22265 -0.32032,0.46094 -0.41016,0.71484 l 3.14648,0 0,1.35352 -4.74023,0"
             style="font-size:12px;text-align:center;text-anchor:middle;fill:#ffffff"
             id="path3513-4" />
        </g>
        <g
           transform="translate(0,128.00008)"
           style="font-size:40px;font-style:normal;font-variant:normal;font-weight:bold;font-stretch:condensed;line-height:125%;letter-spacing:0px;word-spacing:0px;fill:#ffffff;fill-opacity:1;stroke:none;font-family:Liberation Sans Narrow;-inkscape-font-specification:Liberation Sans Narrow Bold Condensed"
           id="text3452-04-7">
          <path
             inkscape:connector-curvature="0"
             d="m 295.88672,815.19324 c -1e-5,0.375 -0.0508,0.71289 -0.15235,1.01367 -0.0977,0.29688 -0.24805,0.55078 -0.45117,0.76172 -0.20313,0.21094 -0.45508,0.37304 -0.75586,0.48633 -0.29687,0.10937 -0.64453,0.16406 -1.04297,0.16406 -0.4414,0 -0.81445,-0.0684 -1.11914,-0.20508 -0.30078,-0.13672 -0.54882,-0.31641 -0.74414,-0.53906 -0.1914,-0.22656 -0.33593,-0.48242 -0.43359,-0.76758 -0.0977,-0.28515 -0.16016,-0.57422 -0.1875,-0.86719 l 1.37109,-0.14648 c 0.0195,0.17578 0.0547,0.33789 0.10547,0.48633 0.0547,0.14453 0.12695,0.26953 0.2168,0.375 0.0898,0.10547 0.19922,0.1875 0.32812,0.24609 0.12891,0.0547 0.28125,0.082 0.45704,0.082 0.32421,0 0.57616,-0.0977 0.75585,-0.29297 0.17969,-0.19531 0.26953,-0.49414 0.26954,-0.89648 -1e-5,-0.24609 -0.043,-0.44336 -0.12891,-0.5918 -0.082,-0.14843 -0.18946,-0.26171 -0.32227,-0.33984 -0.12891,-0.082 -0.26953,-0.13672 -0.42187,-0.16407 -0.14844,-0.0273 -0.28907,-0.041 -0.42188,-0.041 l -0.47461,0 0,-1.33008 0.44532,0 c 0.13281,10e-6 0.26953,-0.0156 0.41015,-0.0469 0.14063,-0.0312 0.26563,-0.0879 0.375,-0.16993 0.11328,-0.082 0.20508,-0.1953 0.27539,-0.33984 0.0703,-0.14843 0.10547,-0.33593 0.10547,-0.5625 0,-0.33984 -0.0781,-0.60546 -0.23437,-0.79687 -0.15235,-0.19531 -0.37891,-0.29297 -0.67969,-0.29297 -0.27735,0 -0.50195,0.0937 -0.67383,0.28125 -0.17187,0.1875 -0.26953,0.45313 -0.29297,0.79687 l -1.35351,-0.11719 c 0.0391,-0.38671 0.12695,-0.72265 0.26367,-1.00781 0.13672,-0.28515 0.30859,-0.52148 0.51562,-0.70898 0.20703,-0.18749 0.44336,-0.32617 0.70899,-0.41602 0.26953,-0.0937 0.55468,-0.14061 0.85547,-0.14062 0.39843,10e-6 0.74023,0.0586 1.02539,0.17578 0.28515,0.11719 0.51953,0.2754 0.70312,0.47461 0.18359,0.19922 0.31836,0.43165 0.4043,0.69726 0.0859,0.26563 0.1289,0.54884 0.12891,0.84961 -10e-6,0.2422 -0.0293,0.46876 -0.0879,0.67969 -0.0586,0.20704 -0.14649,0.39454 -0.26368,0.5625 -0.11719,0.16407 -0.26758,0.30665 -0.45117,0.42773 -0.17969,0.1172 -0.39453,0.20509 -0.64453,0.26368 l 0,0.0234 c 0.27734,0.0391 0.51758,0.1172 0.7207,0.23438 0.20703,0.11328 0.37695,0.25586 0.50977,0.42773 0.13281,0.17188 0.23046,0.36719 0.29297,0.58594 0.0625,0.21485 0.0937,0.44336 0.0937,0.68555"
             style="font-size:12px;text-align:center;text-anchor:middle;fill:#ffffff"
             id="path3510-2" />
        </g>
        <g
           transform="translate(0,148.00006)"
           style="font-size:40px;font-style:normal;font-variant:normal;font-weight:bold;font-stretch:condensed;line-height:125%;letter-spacing:0px;word-spacing:0px;fill:#ffffff;fill-opacity:1;stroke:none;font-family:Liberation Sans Narrow;-inkscape-font-specification:Liberation Sans Narrow Bold Condensed"
           id="text3452-7-8">
          <path
             inkscape:connector-curvature="0"
             d="m 295.37109,805.80847 0,1.68164 -1.28906,0 0,-1.68164 -3.08203,0 0,-1.23633 2.85937,-5.33789 1.51172,0 0,5.34961 0.90235,0 0,1.22461 -0.90235,0 m -1.28906,-3.92578 c 0,-0.0664 0,-0.15234 0,-0.25781 0.004,-0.10937 0.008,-0.2207 0.0117,-0.33399 0.004,-0.11327 0.008,-0.22069 0.0117,-0.32226 0.008,-0.10546 0.0137,-0.1875 0.0176,-0.2461 -0.0156,0.043 -0.041,0.10353 -0.0762,0.18164 l -0.11718,0.25782 c -0.043,0.0937 -0.0879,0.18555 -0.13477,0.27539 l -0.12305,0.23437 -1.57031,2.91211 1.98047,0 0,-2.70117"
             style="font-size:12px;text-align:center;text-anchor:middle;fill:#ffffff"
             id="path3507-4" />
        </g>
      </g>
    </g>
  </g>
</svg>
