<?xml version="1.0" encoding="UTF-8" standalone="no"?>
<!-- Created with Inkscape (http://www.inkscape.org/) -->

<svg
   xmlns:dc="http://purl.org/dc/elements/1.1/"
   xmlns:cc="http://creativecommons.org/ns#"
   xmlns:rdf="http://www.w3.org/1999/02/22-rdf-syntax-ns#"
   xmlns:svg="http://www.w3.org/2000/svg"
   xmlns="http://www.w3.org/2000/svg"
   xmlns:sodipodi="http://sodipodi.sourceforge.net/DTD/sodipodi-0.dtd"
   xmlns:inkscape="http://www.inkscape.org/namespaces/inkscape"
   width="50"
   height="2"
   id="svg2"
   version="1.1"
   inkscape:version="0.48.0 r9654"
   sodipodi:docname="pfd_adi_ils_gs.svg">
  <defs
     id="defs4" />
  <sodipodi:namedview
     id="base"
     pagecolor="#ffffff"
     bordercolor="#666666"
     borderopacity="1.0"
     inkscape:pageopacity="0.0"
     inkscape:pageshadow="2"
     inkscape:zoom="20.250001"
     inkscape:cx="31.419272"
     inkscape:cy="5.8506334"
     inkscape:document-units="px"
     inkscape:current-layer="layer1"
     showgrid="false"
     inkscape:window-width="1440"
     inkscape:window-height="838"
     inkscape:window-x="-8"
     inkscape:window-y="-8"
     inkscape:window-maximized="1"
     inkscape:snap-object-midpoints="false"
     inkscape:snap-smooth-nodes="false"
     inkscape:object-paths="false"
     inkscape:snap-midpoints="true"
     inkscape:snap-intersection-paths="false"
     inkscape:object-nodes="true"
     inkscape:snap-center="false"
     inkscape:snap-global="true" />
  <metadata
     id="metadata7">
    <rdf:RDF>
      <cc:Work
         rdf:about="">
        <dc:format>image/svg+xml</dc:format>
        <dc:type
           rdf:resource="http://purl.org/dc/dcmitype/StillImage" />
        <dc:title />
      </cc:Work>
    </rdf:RDF>
  </metadata>
  <g
     inkscape:label="Layer 1"
     inkscape:groupmode="layer"
     id="layer1"
     transform="translate(0,-1050.3622)">
    <path
       style="fill:#ffffff;fill-rule:evenodd;stroke:#000000;stroke-width:0;stroke-linecap:butt;stroke-linejoin:miter;stroke-miterlimit:4;stroke-opacity:1;stroke-dasharray:none"
       d="m 24.863604,1044.3872 c -4.009785,0 -7.247242,3.1127 -7.247242,6.9313 0,3.8186 3.237457,6.9016 7.247242,6.9016 4.009787,0 7.247244,-3.083 7.247244,-6.9016 l 0,-0.029 c -0.02229,-3.8034 -3.253275,-6.9015 -7.247244,-6.9015 z m 0,0.7734 c 3.547878,0 6.415217,2.7443 6.435053,6.1281 l 0,0.03 c 0,3.3973 -2.867428,6.1281 -6.435053,6.1281 -3.567623,0 -6.435051,-2.7308 -6.435051,-6.1281 0,-3.3975 2.871695,-6.158 6.435051,-6.158 z"
       id="path9177"
       inkscape:connector-curvature="0" />
    <rect
       style="fill:#ff00ff;fill-opacity:1;stroke:none"
       id="rect7899-2"
       width="2"
       height="50"
       x="1050.3622"
       y="-50"
       transform="matrix(0,1,-1,0,0,0)" />
  </g>
</svg>
